<?xml version="1.0" standalone="no"?>
<!DOCTYPE svg PUBLIC "-//W3C//DTD SVG 20010904//EN"
 "http://www.w3.org/TR/2001/REC-SVG-20010904/DTD/svg10.dtd">
<svg version="1.0" xmlns="http://www.w3.org/2000/svg"
 width="150.000000pt" height="150.000000pt" viewBox="0 0 150.000000 150.000000"
 preserveAspectRatio="xMidYMid meet">
<metadata>
Created by potrace 1.16, written by Peter Selinger 2001-2019
</metadata>
<g transform="translate(0.000000,150.000000) scale(0.023962,-0.023962)"
fill="#000000" stroke="none">
<path d="M2870 5026 c-811 -116 -1446 -713 -1616 -1518 -35 -168 -44 -457 -20
-632 102 -728 586 -1316 1280 -1555 225 -78 427 -107 686 -98 364 12 682 114
987 316 914 606 1130 1851 476 2736 -121 163 -329 356 -507 470 -181 115 -459
225 -678 266 -145 27 -465 35 -608 15z m-322 -205 c67 -35 91 -112 56 -185
-17 -34 -16 -34 41 -172 31 -77 58 -140 59 -141 1 -2 34 6 72 17 227 66 474
66 708 0 65 -18 80 -19 87 -8 14 21 10 37 -16 72 -76 99 -71 218 11 299 45 45
83 60 149 61 127 1 215 -87 215 -214 0 -118 -77 -202 -199 -217 -40 -5 -49
-10 -58 -33 -10 -27 -8 -29 28 -46 22 -9 39 -18 39 -19 0 -1 -386 -387 -857
-859 -794 -794 -858 -855 -868 -835 -11 20 -12 20 -24 -9 -7 -16 -25 -41 -39
-55 -106 -101 -272 -27 -272 121 0 107 118 188 214 148 20 -8 36 -14 36 -13 0
1 -12 47 -26 102 -50 192 -43 460 16 655 11 36 20 71 20 78 0 20 -30 14 -64
-15 -114 -96 -284 -57 -340 79 -59 141 46 298 199 298 116 0 214 -94 215 -206
0 -33 4 -43 20 -47 17 -4 26 5 49 51 102 201 332 426 534 523 26 13 47 27 47
31 0 25 -116 281 -129 285 -87 26 -124 72 -118 144 9 103 104 157 195 110z
m1420 -801 c23 -17 55 -48 71 -71 54 -74 52 -136 -6 -200 -44 -49 -90 -65
-139 -49 l-36 12 32 33 c18 18 45 35 61 39 33 6 47 42 29 76 -11 21 -12 21
-33 -11 -32 -47 -72 -73 -111 -72 -93 3 -146 107 -95 190 53 85 151 108 227
53z m563 -193 c37 -24 79 -97 79 -137 0 -41 -42 -113 -80 -138 -29 -20 -45
-23 -93 -20 -38 3 -67 11 -87 26 -39 29 -41 28 -26 -15 47 -133 60 -226 60
-413 1 -172 -1 -193 -28 -298 -16 -62 -27 -114 -25 -115 2 -2 33 -15 69 -29
l64 -26 36 29 c67 54 145 63 226 25 136 -63 167 -234 61 -344 -91 -95 -255
-82 -331 25 -21 31 -30 58 -35 104 l-6 62 -65 28 -64 27 -44 -81 c-23 -44 -64
-110 -89 -146 -66 -93 -214 -237 -310 -300 l-81 -54 30 -38 c76 -95 28 -233
-91 -260 -50 -11 -108 6 -147 45 -33 33 -61 107 -48 128 8 12 7 12 -121 -17
-190 -43 -490 -24 -656 40 -32 12 -31 -26 1 -58 17 -17 37 -54 45 -82 42 -139
-60 -275 -204 -275 -98 1 -161 42 -202 134 -56 129 37 280 181 294 65 6 71 26
17 53 -23 12 -43 23 -45 24 -2 2 1709 1715 1714 1715 1 0 7 -13 14 -30 14 -34
30 -40 30 -11 0 29 26 84 52 108 51 48 143 58 199 20z m-718 -289 l-37 -38
-71 70 -70 70 -28 -27 -27 -28 -26 26 c-25 26 -26 27 -9 53 12 17 16 38 12 63
-3 31 0 43 21 66 l26 27 123 -122 123 -122 -37 -38z m-457 -94 c47 -22 112
-99 120 -140 13 -68 -2 -101 -88 -190 l-82 -85 -123 123 c-68 67 -123 127
-123 133 0 15 106 117 154 149 45 30 92 33 142 10z m-138 -501 l-42 -43 -128
127 -128 127 42 43 42 43 128 -127 128 -127 -42 -43z m-236 12 l83 -165 -41
-40 -40 -41 -167 81 c-92 44 -167 84 -167 88 0 4 18 25 39 46 l39 38 93 -55
c52 -31 96 -54 98 -52 2 2 -20 44 -48 93 -28 49 -51 93 -51 98 0 11 61 74 72
74 4 0 45 -74 90 -165z m-264 -187 c71 -44 112 -129 97 -204 -8 -46 -84 -129
-132 -145 -99 -32 -225 48 -248 158 -15 75 57 188 137 212 44 13 104 5 146
-21z m-312 -264 c19 -9 34 -19 34 -22 0 -3 -16 -23 -36 -43 -31 -32 -40 -36
-59 -27 -29 13 -62 -4 -76 -39 -13 -35 28 -99 78 -120 33 -13 38 -13 62 5 28
21 39 58 22 75 -8 8 -1 22 26 49 20 21 41 38 45 38 15 0 38 -60 38 -100 0 -49
-11 -73 -54 -118 -42 -46 -77 -62 -131 -62 -55 0 -88 16 -137 67 -59 61 -74
131 -43 198 45 94 148 138 231 99z"/>
<path d="M3230 3325 l-24 -25 60 -61 59 -60 23 26 c33 39 28 67 -18 109 -47
43 -68 45 -100 11z"/>
<path d="M2562 2674 c-36 -25 -29 -69 17 -115 43 -44 87 -52 114 -21 29 31 21
70 -22 113 -42 42 -72 49 -109 23z"/>
</g>
</svg>
